<?xml version="1.0" encoding="UTF-8" standalone="no"?>

<svg viewBox="0 0 66 66">
   <title id="title907">iMessage logo</title>
   <defs id="defs2">
      <linearGradient inkscape:collect="always" id="linearGradient899">
         <stop style="stop-color:#0cbd2a;stop-opacity:1" offset="0" id="stop895" />
         <stop style="stop-color:#5bf675;stop-opacity:1" offset="1" id="stop897" />
      </linearGradient>
      <linearGradient inkscape:collect="always" xlink:href="#linearGradient899" id="linearGradient901" x1="-25.272568"
         y1="207.52057" x2="-25.272568" y2="152.9982" gradientUnits="userSpaceOnUse"
         gradientTransform="matrix(0.98209275,0,0,0.98209275,-1.0651782,3.7961838)" />
   </defs>
   <g inkscape:groupmode="layer" id="layer1" transform="translate(59.483067,-145.8456)">
      <g id="g963">
         <rect ry="14.567832" rx="14.567832" y="145.8456" x="-59.483067" height="66.145836" width="66.145836"
            id="rect826"
            style="opacity:1;fill:url(#linearGradient901);fill-opacity:1;stroke:none;stroke-width:1.33634758;stroke-linecap:square;stroke-linejoin:miter;stroke-miterlimit:4;stroke-dasharray:none;stroke-dashoffset:0;stroke-opacity:1;paint-order:markers stroke fill" />
         <path inkscape:connector-curvature="0" id="path922"
            d="m -26.410149,157.29606 a 24.278298,20.222157 0 0 0 -24.278105,20.22202 24.278298,20.222157 0 0 0 11.79463,17.31574 27.365264,20.222157 0 0 1 -4.245218,5.94228 23.85735,20.222157 0 0 0 9.86038,-3.87367 24.278298,20.222157 0 0 0 6.868313,0.83768 24.278298,20.222157 0 0 0 24.2781059,-20.22203 24.278298,20.222157 0 0 0 -24.2781059,-20.22202 z"
            style="opacity:1;fill:#ffffff;fill-opacity:1;stroke:none;stroke-width:1.56409621;stroke-linecap:square;stroke-linejoin:miter;stroke-miterlimit:4;stroke-dasharray:none;stroke-dashoffset:0;stroke-opacity:1;paint-order:markers stroke fill" />
      </g>
   </g>
</svg>